<svg width="512" height="512" viewBox="0 0 170 170" fill="none" xmlns="http://www.w3.org/2000/svg">
<g transform="translate(22.5,0)">
<path d="M14 0.5H87.8145L124.5 32.2275V156C124.5 163.456 118.456 169.5 111 169.5H14C6.54416 169.5 0.5 163.456 0.5 156V14L0.504883 13.6514C0.689804 6.35665 6.66072 0.5 14 0.5Z" fill="white" stroke="#E2E8F0"/>
<path d="M29.25 49.2915C29.25 47.557 27.627 46.1509 25.625 46.1509C23.623 46.1509 22 47.557 22 49.2915V118.385C22 120.12 23.623 121.526 25.625 121.526C27.627 121.526 29.25 120.12 29.25 118.385V49.2915Z" fill="#0078D7"/>
<path d="M89.2 52.4321C89.2 33.5883 63.1 33.5883 63.1 58.7133V108.963C63.1 134.088 37 134.088 37 115.245" stroke="#E2E8F0" stroke-width="7" stroke-linecap="round"/>
<path d="M80 108.963L103.2 120.27L80 131.576V108.963Z" fill="#0078D7"/>
<path d="M88 1V26.125C88 29.6425 91.19 32.4063 95.25 32.4063H124.25L88 1Z" fill="#F8FAFC" stroke="#E2E8F0" stroke-linejoin="round"/>
</g>
</svg>
